HIERARCHY
ROOT Hips
{
	OFFSET 0.000000 0.000000 0.000000
	CHANNELS 6 Xposition Yposition Zposition Xrotation Yrotation Zrotation
	JOINT LeftUpLeg_virtual
	{
		OFFSET 0.000000 0.000000 0.000000
		CHANNELS 3 Xrotation Yrotation Zrotation
		JOINT LeftUpLeg
		{
			OFFSET 15.427100 -6.655098 0.678600
			CHANNELS 3 Xrotation Yrotation Zrotation
			JOINT LeftLeg
			{
				OFFSET 4.081073 -39.591068 13.024000
				CHANNELS 3 Xrotation Yrotation Zrotation
				JOINT LeftFoot
				{
					OFFSET -4.081074 -37.707932 -15.979700
					CHANNELS 3 Xrotation Yrotation Zrotation
					JOINT LeftToeBase
					{
						OFFSET 5.346399 -15.068900 20.645000
						CHANNELS 3 Xrotation Yrotation Zrotation
						JOINT LeftToe_End
						{
							OFFSET 2.754700 0.931300 11.300900
							CHANNELS 3 Xrotation Yrotation Zrotation
							End Site
							{
								OFFSET 0 0 0
							}
						}
					}
				}
			}
		}
	}
	JOINT RightUpLeg_virtual
	{
		OFFSET 0.000000 0.000000 0.000000
		CHANNELS 3 Xrotation Yrotation Zrotation
		JOINT RightUpLeg
		{
			OFFSET -15.569500 -6.655098 0.678600
			CHANNELS 3 Xrotation Yrotation Zrotation
			JOINT RightLeg
			{
				OFFSET -4.081825 -39.591045 13.023800
				CHANNELS 3 Xrotation Yrotation Zrotation
				JOINT RightFoot
				{
					OFFSET 4.081824 -37.707954 -15.979600
					CHANNELS 3 Xrotation Yrotation Zrotation
					JOINT RightToeBase
					{
						OFFSET -5.346400 -15.068900 20.645000
						CHANNELS 3 Xrotation Yrotation Zrotation
						JOINT RightToe_End
						{
							OFFSET -2.754700 0.931300 11.300900
							CHANNELS 3 Xrotation Yrotation Zrotation
							End Site
							{
								OFFSET 0 0 0
							}
						}
					}
				}
			}
		}
	}
	JOINT Spine_virtual
	{
		OFFSET 0.000000 0.000000 0.000000
		CHANNELS 3 Xrotation Yrotation Zrotation
		JOINT Spine
		{
			OFFSET -0.279200 12.230698 -2.892100
			CHANNELS 3 Xrotation Yrotation Zrotation
			JOINT Spine1
			{
				OFFSET -0.232667 10.192268 -1.242267
				CHANNELS 3 Xrotation Yrotation Zrotation
				JOINT Spine1_split
				{
					OFFSET -0.232667 10.192268 -1.242267
					CHANNELS 3 Xrotation Yrotation Zrotation
					JOINT Spine2
					{
						OFFSET -0.232667 10.192268 -1.242267
						CHANNELS 3 Xrotation Yrotation Zrotation
						JOINT Neck_virtual
						{
							OFFSET 0.000000 0.000000 0.000000
							CHANNELS 3 Xrotation Yrotation Zrotation
							JOINT Neck
							{
								OFFSET -0.418800 17.814194 8.416900
								CHANNELS 3 Xrotation Yrotation Zrotation
								JOINT Head
								{
									OFFSET 0.000000 7.031097 3.806800
									CHANNELS 3 Xrotation Yrotation Zrotation
									JOINT HeadTop_End
									{
										OFFSET 0.000000 24.646606 12.978600
										CHANNELS 3 Xrotation Yrotation Zrotation
										End Site
										{
											OFFSET 0 0 0
										}
									}
								}
							}
						}
						JOINT LeftShoulder_virtual
						{
							OFFSET 0.000000 0.000000 0.000000
							CHANNELS 3 Xrotation Yrotation Zrotation
							JOINT LeftShoulder
							{
								OFFSET 8.476499 7.247704 -3.868750
								CHANNELS 3 Xrotation Yrotation Zrotation
								JOINT LeftShoulder_split
								{
									OFFSET 8.476499 7.247704 -3.868750
									CHANNELS 3 Xrotation Yrotation Zrotation
									JOINT LeftArm
									{
										OFFSET 9.308998 -2.777710 0.208600
										CHANNELS 3 Xrotation Yrotation Zrotation
										JOINT LeftForeArm
										{
											OFFSET 29.972298 0.000000 0.000000
											CHANNELS 3 Xrotation Yrotation Zrotation
											JOINT LeftHand
											{
												OFFSET 26.026505 0.000000 0.000000
												CHANNELS 3 Xrotation Yrotation Zrotation
												End Site
												{
													OFFSET 0 0 0
												}
											}
										}
									}
								}
							}
						}
						JOINT RightShoulder_virtual
						{
							OFFSET 0.000000 0.000000 0.000000
							CHANNELS 3 Xrotation Yrotation Zrotation
							JOINT RightShoulder
							{
								OFFSET -7.570500 7.247704 -3.868750
								CHANNELS 3 Xrotation Yrotation Zrotation
								JOINT RightShoulder_split
								{
									OFFSET -7.570500 7.247704 -3.868750
									CHANNELS 3 Xrotation Yrotation Zrotation
									JOINT RightArm
									{
										OFFSET -9.308998 -2.777710 0.208500
										CHANNELS 3 Xrotation Yrotation Zrotation
										JOINT RightForeArm
										{
											OFFSET -29.972300 0.000000 0.000000
											CHANNELS 3 Xrotation Yrotation Zrotation
											JOINT RightHand
											{
												OFFSET -26.026505 0.000000 0.000000
												CHANNELS 3 Xrotation Yrotation Zrotation
												End Site
												{
													OFFSET 0 0 0
												}
											}
										}
									}
								}
							}
						}
					}
				}
			}
		}
	}
}
MOTION
Frames: 5
Frame Time: 0.03333333
0.070040 84.194809 6.376244 0.000000 0.000000 0.000000 -13.182134 -1.786042 -5.130267 -31.800907 21.166162 9.748438 41.635515 -7.345019 10.807331 0.062823 -9.118416 0.055937 -0.920818 -0.000003 0.000002 0.000000 0.000000 0.000000 -13.182134 -1.786042 -5.130267 -21.879060 -35.807263 0.445459 38.486084 7.972940 -10.860386 -3.003822 7.825370 -6.005358 -0.000021 0.000002 0.000000 0.000000 0.000000 0.000000 -13.182134 -1.786042 -5.130267 5.922163 -0.694470 3.094664 9.021538 -0.430000 -0.455594 0.000000 0.000000 0.000000 0.000000 0.000000 0.000000 9.028561 -0.103888 -0.473627 15.499586 0.680417 0.863641 -2.573559 0.818021 5.726065 0.000000 0.000000 0.000000 9.028561 -0.103888 -0.473627 0.681784 3.908469 -11.397479 0.000000 0.000000 0.000000 74.323544 -65.285503 4.646522 -0.000004 -18.010080 -0.000007 0.000000 0.000000 0.000000 9.028561 -0.103888 -0.473627 1.412995 0.332766 10.813720 0.000000 0.000000 0.000000 8.850510 40.127180 57.894036 -0.000017 26.003471 0.000002 0.000000 0.000000 0.000000 
0.099158 84.197182 6.376656 0.000000 0.000000 0.000000 -13.189936 -1.859302 -5.095103 -31.774744 21.287085 9.741614 41.619122 -7.348306 10.807013 0.051763 -9.140140 0.082674 -0.917046 0.000000 -0.000001 0.000000 0.000000 0.000000 -13.189936 -1.859302 -5.095103 -21.912049 -35.610223 0.449277 38.501770 7.965310 -10.865017 -2.988676 7.743502 -5.955171 -0.000021 0.000003 0.000000 0.000000 0.000000 0.000000 -13.189936 -1.859302 -5.095103 5.920274 -0.686457 3.078781 9.015934 -0.413234 -0.454230 0.000000 0.000000 0.000000 0.000000 0.000000 0.000000 9.022704 -0.086283 -0.473040 15.501750 0.686838 0.839503 -2.569939 0.854904 5.720952 0.000000 0.000000 0.000000 9.022704 -0.086283 -0.473040 0.684058 3.939021 -11.452424 0.000000 0.000000 0.000000 74.202478 -65.177831 4.592533 0.000014 -18.130785 -0.000007 0.000000 0.000000 0.000000 9.022704 -0.086283 -0.473040 1.414564 0.343947 10.791923 0.000000 0.000000 0.000000 8.851291 40.106642 57.862740 -0.000000 26.024373 0.000001 0.000000 0.000000 0.000000 
0.120635 84.193695 6.379295 0.000000 0.000000 0.000000 -13.198151 -1.917595 -5.054744 -31.749103 21.387824 9.724674 41.611654 -7.351022 10.806856 0.039283 -9.154879 0.103462 -0.914340 0.000004 -0.000002 0.000000 0.000000 0.000000 -13.198151 -1.917595 -5.054744 -21.959856 -35.443938 0.429126 38.534032 7.952189 -10.874342 -2.982381 7.711568 -5.907702 -0.000021 0.000002 0.000000 0.000000 0.000000 0.000000 -13.198151 -1.917595 -5.054744 5.918554 -0.680132 3.051729 9.011903 -0.402151 -0.453031 0.000000 0.000000 0.000000 0.000000 0.000000 0.000000 9.018518 -0.075172 -0.472221 15.504654 0.694578 0.815026 -2.576170 0.881120 5.745638 0.000000 0.000000 0.000000 9.018518 -0.075172 -0.472221 0.686101 3.965377 -11.500587 0.000000 0.000000 0.000000 73.964726 -65.059765 4.417138 -0.000002 -18.276560 -0.000007 0.000000 0.000000 0.000000 9.018518 -0.075172 -0.472221 1.419720 0.370544 10.793311 0.000000 0.000000 0.000000 8.882749 40.061180 57.791767 0.000012 26.096826 0.000005 0.000000 0.000000 0.000000 
0.131357 84.181938 6.384853 0.000000 0.000000 0.000000 -13.205596 -1.955717 -5.010890 -31.728746 21.459659 9.699044 41.618617 -7.352267 10.806910 0.023985 -9.162086 0.116338 -0.912452 0.000002 0.000001 0.000000 0.000000 0.000000 -13.205596 -1.955717 -5.010890 -22.025171 -35.323785 0.382120 38.588407 7.939322 -10.889514 -2.987105 7.742993 -5.867347 -0.000021 0.000002 0.000000 0.000000 0.000000 0.000000 -13.205596 -1.955717 -5.010890 5.916465 -0.675830 3.013598 9.008164 -0.397412 -0.451910 0.000000 0.000000 0.000000 0.000000 0.000000 0.000000 9.014735 -0.071260 -0.471072 15.511845 0.702969 0.793773 -2.592640 0.892664 5.800244 0.000000 0.000000 0.000000 9.014735 -0.071260 -0.471072 0.687715 3.984595 -11.536989 0.000000 0.000000 0.000000 73.650866 -64.944533 4.149652 -0.000002 -18.432567 -0.000002 0.000000 0.000000 0.000000 9.014735 -0.071260 -0.471072 1.426891 0.405394 10.810867 0.000000 0.000000 0.000000 8.935159 39.998752 57.704047 -0.000002 26.203539 0.000005 0.000000 0.000000 0.000000 
0.131482 84.162254 6.393166 0.000000 0.000000 0.000000 -13.211556 -1.974273 -4.966522 -31.716830 21.502306 9.668993 41.640873 -7.351862 10.807251 0.005802 -9.163503 0.120908 -0.911065 -0.000001 -0.000002 0.000000 0.000000 0.000000 -13.211556 -1.974273 -4.966522 -22.104311 -35.250480 0.312436 38.660793 7.920884 -10.908979 -3.003128 7.834499 -5.834357 -0.000021 0.000002 0.000000 0.000000 0.000000 0.000000 -13.211556 -1.974273 -4.966522 5.913544 -0.673283 2.968109 9.003465 -0.397863 -0.451117 0.000000 0.000000 0.000000 0.000000 0.000000 0.000000 9.010054 -0.073211 -0.469937 15.525834 0.711539 0.780011 -2.617118 0.889761 5.880500 0.000000 0.000000 0.000000 9.010054 -0.073211 -0.469937 0.688698 3.994661 -11.557655 0.000000 0.000000 0.000000 73.303749 -64.842189 3.826943 0.000005 -18.585997 0.000003 0.000000 0.000000 0.000000 9.010054 -0.073211 -0.469937 1.434347 0.439891 10.843538 0.000000 0.000000 0.000000 9.004726 39.927216 57.610576 0.000009 26.326708 -0.000005 0.000000 0.000000 0.000000 
